<svg width="49" height="48" viewBox="0 0 49 48" fill="none" xmlns="http://www.w3.org/2000/svg">
<g clip-path="url(#clip0_27139_7860)">
<path d="M37.9286 0H11.0714C5.23299 0 0.5 4.733 0.5 10.5714V37.4286C0.5 43.267 5.23299 48 11.0714 48H37.9286C43.767 48 48.5 43.267 48.5 37.4286V10.5714C48.5 4.733 43.767 0 37.9286 0Z" fill="url(#paint0_linear_27139_7860)"/>
<path d="M24.5 8.30908C19.8275 8.30911 15.3463 9.85517 12.0423 12.6072C8.73833 15.3592 6.88216 19.0917 6.88213 22.9836C6.88638 25.5151 7.6768 28.0026 9.17657 30.2044C10.6763 32.4062 12.8344 34.2474 15.4411 35.5491C14.7469 37.1034 13.7056 38.5608 12.3605 39.8612C14.969 39.4033 17.4177 38.4413 19.5159 37.0502C21.1337 37.4506 22.8122 37.6554 24.5 37.6581C29.1725 37.6581 33.6537 36.112 36.9577 33.36C40.2617 30.608 42.1178 26.8755 42.1179 22.9836C42.1178 19.0917 40.2617 15.3592 36.9577 12.6072C33.6537 9.85517 29.1725 8.30911 24.5 8.30908Z" fill="white"/>
</g>
<defs>
<linearGradient id="paint0_linear_27139_7860" x1="24.881" y1="44.8137" x2="24.881" y2="5.95702" gradientUnits="userSpaceOnUse">
<stop stop-color="#0CBD2A"/>
<stop offset="1" stop-color="#5BF675"/>
</linearGradient>
<clipPath id="clip0_27139_7860">
<rect width="48" height="48" fill="white" transform="translate(0.5)"/>
</clipPath>
</defs>
</svg>
