<svg width="49" height="48" viewBox="0 0 49 48" fill="none" xmlns="http://www.w3.org/2000/svg">
<rect x="0.5" width="48" height="48" fill="#27D045"/>
<path d="M16.3546 17.4656C16.7159 16.9119 17.1857 16.4339 17.7367 16.0593C18.3275 15.9779 18.9269 15.9779 19.5176 16.0593C19.8954 16.2179 21.4065 19.9722 21.4065 20.2366C21.2818 20.7093 21.0409 21.145 20.705 21.5057C20.2732 22.0873 19.9494 22.4575 19.9494 22.4575C20.4578 23.679 21.2528 24.7659 22.27 25.6301C24.051 27.2164 25.9399 27.9567 26.3717 27.9567C26.7725 27.9567 26.9407 27.7288 27.3084 27.2305C27.3367 27.1922 27.3661 27.1522 27.397 27.1107C27.522 26.9422 27.638 26.7649 27.7489 26.5955C28.0208 26.1797 28.262 25.811 28.5304 25.7358C28.9082 25.6301 32.7939 27.375 32.8478 27.7452C32.9096 28.0951 32.9096 28.4528 32.8478 28.8027C32.7862 29.2015 32.6775 29.5919 32.524 29.966C31.8688 30.7885 30.9604 31.3819 29.9335 31.6581C28.775 31.8798 27.5758 31.7697 26.4796 31.3408C24.6002 30.7566 22.8448 29.8428 21.2986 28.6441C19.5311 27.119 17.9712 25.3773 16.6574 23.4621C16.6574 23.4621 15.3621 21.347 15.632 19.2848C15.7477 18.6376 15.9934 18.0192 16.3546 17.4656Z" fill="white"/>
<path fill-rule="evenodd" clip-rule="evenodd" d="M24.5 40.3127C21.736 40.3127 19.126 39.6664 16.8189 38.5196L7.71582 41L10.1417 32.5778C8.46886 29.9988 7.5 26.9384 7.5 23.6563C7.5 14.4573 15.1112 7 24.5 7C33.8888 7 41.5 14.4573 41.5 23.6563C41.5 32.8554 33.8888 40.3127 24.5 40.3127ZM10.1984 23.6563C10.1984 15.9175 16.6015 9.64386 24.5 9.64386C32.3986 9.64386 38.8016 15.9175 38.8016 23.6563C38.8016 31.3952 32.3986 37.6688 24.5 37.6688C21.8833 37.6688 19.4308 36.9803 17.3208 35.7781L17.3198 35.7784L17.3221 35.7651L11.3856 37.6159L12.5421 33.5134C12.727 32.9113 12.8933 32.3704 13.0078 31.9983C11.2426 29.6677 10.1984 26.7815 10.1984 23.6563Z" fill="white"/>
</svg>
