<svg width="49" height="48" viewBox="0 0 49 48" fill="none" xmlns="http://www.w3.org/2000/svg">
<g clip-path="url(#clip0_27139_7844)">
<path fill-rule="evenodd" clip-rule="evenodd" d="M10.349 9.79918C10.4456 9.93713 12.6847 13.1961 15.3246 17.0413C17.9645 20.8864 20.4061 24.4424 20.7505 24.9435C21.0949 25.4445 21.3766 25.8645 21.3766 25.8768C21.3766 25.8891 21.2484 26.0472 21.0916 26.2281C20.9349 26.4091 20.4935 26.9212 20.1107 27.3663C19.7279 27.8113 19.0826 28.5614 18.6767 29.0332C18.2708 29.5049 17.5567 30.3351 17.0898 30.8781C16.623 31.421 15.7834 32.3972 15.2242 33.0473C13.4944 35.0581 13.2448 35.3485 11.9281 36.8821C11.225 37.701 10.5508 38.484 10.4299 38.622C10.309 38.7601 10.2101 38.8876 10.2101 38.9052C10.2101 38.926 10.6517 38.9374 11.4543 38.9374H12.6984L14.0663 37.3433C14.8186 36.4666 15.5608 35.6036 15.7155 35.4256C16.0501 35.0407 18.6015 32.0719 18.816 31.818C18.8981 31.7208 19.0174 31.5824 19.0811 31.5105C19.1448 31.4386 19.6467 30.8554 20.1966 30.2146C20.7464 29.5737 21.2114 29.0337 21.2298 29.0145C21.2482 28.9953 21.5393 28.6566 21.8766 28.2619C22.214 27.8673 22.5004 27.5443 22.5131 27.5443C22.5259 27.5443 24.2586 30.0531 26.3638 33.1195C28.469 36.1858 30.2289 38.749 30.2749 38.8154L30.3584 38.936L34.6262 38.9367C38.1359 38.9373 38.8911 38.9299 38.8777 38.8949C38.8634 38.8578 36.8187 35.8753 31.573 28.2402C27.7966 22.7438 27.2945 22.0052 27.3089 21.9677C27.3229 21.9312 27.8372 21.3296 31.2189 17.3946C31.799 16.7196 32.5986 15.7887 32.9958 15.3258C33.393 14.863 33.7941 14.3969 33.8871 14.2901C33.9801 14.1833 34.4689 13.6152 34.9733 13.0278C35.4778 12.4403 36.3353 11.4421 36.879 10.8096C37.4227 10.177 37.8875 9.6345 37.9119 9.60391C37.9538 9.55158 37.8827 9.54834 36.6926 9.54834H35.4288L34.8667 10.2038C34.1186 11.0761 32.7663 12.649 32.3823 13.0935C32.2127 13.2899 32.001 13.5368 31.912 13.642C31.823 13.7473 31.6474 13.9507 31.5218 14.0941C31.3961 14.2375 30.7631 14.9738 30.1149 15.7304C29.4668 16.487 28.9277 17.1133 28.9168 17.1222C28.9059 17.1311 28.7671 17.2922 28.6082 17.4802C28.3303 17.809 28.0474 18.1382 26.7504 19.6424C26.181 20.3027 26.1518 20.3311 26.1038 20.2704C26.0762 20.2354 24.4078 17.8088 22.3962 14.8779L18.7387 9.54902L14.456 9.54866L10.1732 9.54834L10.349 9.79918ZM13.6916 11.5467C13.7238 11.5958 14.5239 12.7429 15.4698 14.0959C17.2637 16.6618 24.3128 26.7509 28.8463 33.2409C30.2949 35.3148 31.4979 37.0299 31.5195 37.0523C31.5504 37.0843 31.9722 37.0912 33.4904 37.0847L35.4221 37.0763L30.3673 29.8423C27.5872 25.8636 23.562 20.1032 21.4225 17.0413L17.5325 11.4742L15.5828 11.4658L13.6332 11.4575L13.6916 11.5467Z" fill="#FAFAFA"/>
<path fill-rule="evenodd" clip-rule="evenodd" d="M0.5 24V48L24.5081 47.9919L48.5162 47.9838L48.5243 23.9919L48.5324 0H24.5162H0.5V24ZM0.516086 24.0162C0.516086 37.2162 0.519776 42.6162 0.524275 36.0162C0.528774 29.4162 0.528774 18.6162 0.524275 12.0162C0.519776 5.41617 0.516086 10.8162 0.516086 24.0162ZM10.349 9.79906C10.4456 9.937 12.6847 13.196 15.3246 17.0411C17.9645 20.8863 20.4061 24.4423 20.7505 24.9433C21.0948 25.4444 21.3766 25.8644 21.3766 25.8767C21.3766 25.889 21.2484 26.0471 21.0916 26.228C20.9349 26.4089 20.4935 26.9211 20.1107 27.3661C19.7279 27.8112 19.0826 28.5613 18.6767 29.033C18.2708 29.5048 17.5567 30.335 17.0898 30.8779C16.623 31.4209 15.7834 32.3971 15.2242 33.0472C13.4944 35.058 13.2448 35.3484 11.9281 36.882C11.225 37.7009 10.5508 38.4838 10.4299 38.6219C10.309 38.76 10.21 38.8874 10.21 38.9051C10.21 38.9259 10.6517 38.9373 11.4543 38.9373H12.6984L14.0663 37.3432C14.8186 36.4665 15.5608 35.6035 15.7155 35.4255C16.0501 35.0406 18.6015 32.0718 18.816 31.8179C18.8981 31.7207 19.0174 31.5823 19.081 31.5104C19.1447 31.4385 19.6467 30.8553 20.1966 30.2144C20.7464 29.5736 21.2114 29.0335 21.2298 29.0143C21.2482 28.9952 21.5393 28.6565 21.8766 28.2618C22.214 27.8671 22.5004 27.5442 22.5131 27.5442C22.5258 27.5442 24.2586 30.053 26.3638 33.1194C28.4689 36.1857 30.2289 38.7488 30.2749 38.8152L30.3584 38.9359L34.6262 38.9366C38.1359 38.9372 38.8911 38.9297 38.8777 38.8948C38.8634 38.8576 36.8187 35.8752 31.573 28.2401C27.7966 22.7436 27.2945 22.005 27.3089 21.9676C27.3229 21.9311 27.8372 21.3295 31.2189 17.3945C31.7989 16.7195 32.5986 15.7885 32.9958 15.3257C33.393 14.8628 33.7941 14.3968 33.8871 14.29C33.98 14.1831 34.4689 13.6151 34.9733 13.0276C35.4778 12.4402 36.3353 11.442 36.879 10.8095C37.4227 10.1769 37.8875 9.63437 37.9119 9.60379C37.9538 9.55145 37.8827 9.54821 36.6925 9.54821H35.4288L34.8667 10.2036C34.1186 11.0759 32.7663 12.6489 32.3823 13.0934C32.2127 13.2898 32.001 13.5366 31.912 13.6419C31.823 13.7472 31.6474 13.9506 31.5218 14.094C31.3961 14.2374 30.7631 14.9737 30.1149 15.7303C29.4668 16.4869 28.9277 17.1131 28.9168 17.122C28.9059 17.131 28.767 17.292 28.6082 17.4801C28.3303 17.8089 28.0474 18.1381 26.7504 19.6423C26.181 20.3026 26.1518 20.3309 26.1038 20.2702C26.0762 20.2353 24.4078 17.8086 22.3962 14.8778L18.7387 9.54889L14.456 9.54854L10.1732 9.54821L10.349 9.79906ZM13.6916 11.5466C13.7238 11.5957 14.5239 12.7428 15.4698 14.0958C17.2637 16.6617 24.3128 26.7507 28.8462 33.2407C30.2949 35.3146 31.4979 37.0298 31.5195 37.0522C31.5504 37.0842 31.9722 37.0911 33.4904 37.0845L35.4221 37.0762L30.3673 29.8422C27.5872 25.8635 23.562 20.103 21.4225 17.0411L17.5325 11.474L15.5828 11.4657L13.6332 11.4573L13.6916 11.5466Z" fill="#040404"/>
</g>
<defs>
<clipPath id="clip0_27139_7844">
<rect width="48" height="48" fill="white" transform="translate(0.5)"/>
</clipPath>
</defs>
</svg>
